<?xml version="1.0" encoding="UTF-8" standalone="no"?>
<svg
   version="1.1"
   viewBox="-10 0 1034 1024"
   id="svg1"
   sodipodi:docname="fediverse.svg"
   inkscape:version="1.3.2 (091e20e, 2023-11-25, custom)"
   xmlns:inkscape="http://www.inkscape.org/namespaces/inkscape"
   xmlns:sodipodi="http://sodipodi.sourceforge.net/DTD/sodipodi-0.dtd"
   xmlns="http://www.w3.org/2000/svg"
   xmlns:svg="http://www.w3.org/2000/svg">
  <defs
     id="defs1" />
  <sodipodi:namedview
     id="namedview1"
     pagecolor="#ffffff"
     bordercolor="#000000"
     borderopacity="0.25"
     inkscape:showpageshadow="2"
     inkscape:pageopacity="0.0"
     inkscape:pagecheckerboard="0"
     inkscape:deskcolor="#d1d1d1"
     inkscape:zoom="0.39697266"
     inkscape:cx="583.16359"
     inkscape:cy="895.52767"
     inkscape:window-width="1920"
     inkscape:window-height="1009"
     inkscape:window-x="-8"
     inkscape:window-y="-5"
     inkscape:window-maximized="1"
     inkscape:current-layer="svg1" />
  <path
     fill="currentColor"
     d="m 553.61627,0.92496883 q -38.82552,0 -66.73138,26.53352017 -27.90584,26.533519 -30.33243,66.3338 -2.4266,39.800281 24.8726,69.952011 27.29919,30.15172 67.94467,32.56387 40.64547,2.41214 70.97792,-24.72442 30.33244,-27.13655 32.75903,-67.53988 2.4266,-40.403308 -24.8726,-71.158069 Q 600.93489,2.1310379 559.68277,0.92496883 Z M 448.05937,115.50153 166.57431,257.81769 q 24.26595,24.12138 30.33243,57.89131 L 477.17851,173.39285 q -23.05265,-24.12138 -29.11914,-57.89132 z m 202.62072,32.56387 q -15.77287,30.15172 -46.10532,45.83062 l 222.03348,221.91673 q 15.77288,-30.15174 47.31862,-45.83063 z M 478.39182,174.59892 314.59662,494.20724 363.12853,542.45 536.6301,204.75065 q -33.97233,-6.03034 -58.23828,-30.15173 z m 126.18295,19.2971 q -26.69254,13.26677 -55.81169,12.06069 l -9.70638,-1.20606 25.47926,159.20113 67.94467,10.85461 z M 87.709953,234.90238 q -38.825526,0 -66.731367,27.13656 -27.9058506,27.13655 -30.332446,66.3338 -2.426595,39.19724 24.872603,69.952 27.299201,30.75476 68.551323,32.56387 41.252124,1.8091 71.584554,-25.32746 30.33245,-27.13655 32.15239,-67.53986 1.81995,-40.40332 -25.47924,-70.55505 -27.2992,-30.15173 -67.338031,-32.56386 z m 109.196787,82.0127 q 1.21331,10.85461 1.21331,21.70924 -1.21331,22.91531 -12.13298,42.21242 l 160.15529,25.32745 31.54574,-60.30345 z m 272.99199,43.41849 -31.54574,61.50952 377.33559,59.09738 q -1.2133,-9.64855 -1.2133,-20.50317 1.2133,-22.91532 12.13297,-43.41849 z m 451.34674,7.23641 q -38.82552,1.20607 -66.73136,27.73959 -27.90586,26.53352 -29.7258,66.33381 -1.81994,39.80027 25.47925,69.952 27.2992,30.15173 67.94467,32.56387 40.64548,2.41213 70.97791,-24.72442 30.33246,-27.13656 32.75906,-68.14291 2.4266,-41.00634 -24.87262,-71.15807 -27.2992,-30.15173 -68.55132,-32.56387 z m -735.2584,15.6789 Q 170.2142,413.4006 138.66846,429.0795 l 254.79252,253.27452 61.87817,-30.15173 z m -48.53191,45.83062 q -25.47925,13.26677 -53.385094,12.06069 l -10.919685,-1.20606 48.531909,308.75369 q 25.47925,-12.0607 54.5984,-10.85462 l 9.70638,1.20607 z m 441.64037,26.53353 58.23829,375.08749 q 25.47924,-12.0607 53.3851,-10.85462 l 12.13297,1.20607 -55.81169,-354.58432 z m 236.59305,27.73958 -143.16914,72.36415 9.70639,67.53988 163.79519,-82.01271 Q 821.75506,517.12255 815.68858,483.35261 Z M 847.23432,542.45 702.85189,821.05197 q 33.97234,6.03034 58.23829,30.15173 L 905.47261,572.60173 Q 871.50027,566.57138 847.23432,542.45 Z m -576.31641,34.97601 -82.50424,161.61326 q 33.97233,6.03035 58.23828,30.15173 l 72.79786,-143.52223 z m 317.884,20.50317 -340.93665,172.46788 q 23.05265,24.12138 29.11914,57.89132 L 598.50829,665.46905 Z m -66.73138,120.60691 -61.87818,30.15173 128.60956,129.04939 q 15.77286,-30.15172 47.3186,-45.83062 z M 169.0009,747.48175 q -38.82552,0 -67.33802,27.13655 -28.512499,27.13656 -30.332443,66.33381 -1.819944,39.19724 25.479257,69.34897 27.299186,30.15173 67.944666,32.56387 40.64547,2.41214 70.97792,-24.72442 30.33244,-27.13655 32.75903,-67.53988 2.4266,-40.40331 -24.8726,-70.55504 -27.29919,-30.15172 -68.55132,-32.56386 z m 107.9835,82.0127 q 2.4266,10.85462 1.21329,21.70925 -1.21329,22.9153 -10.91967,42.21241 l 310.60421,49.44884 q -1.2133,-10.85463 -1.2133,-21.70925 1.2133,-21.70924 12.13298,-42.21241 z m 406.45473,0 q -38.82553,0 -66.73138,27.13656 -27.90584,27.13655 -29.72579,66.3338 -1.81995,39.19724 24.8726,69.95201 26.69255,30.75478 67.94467,32.56388 41.25212,1.8091 71.58457,-25.3275 30.33244,-27.13652 32.75903,-67.53984 2.4266,-40.40332 -24.87259,-70.55505 -27.2992,-30.15172 -68.55132,-32.56386 z"
     id="path1"
     style="stroke-width:1.20968" />
</svg>
